<svg xmlns="http://www.w3.org/2000/svg" viewBox="0 0 32 32" width="32" height="32">
  <defs>
    <linearGradient id="rocketGradientSmall" x1="0%" y1="0%" x2="100%" y2="100%">
      <stop offset="0%" style="stop-color:#4A90E2;stop-opacity:1" />
      <stop offset="50%" style="stop-color:#7B68EE;stop-opacity:1" />
      <stop offset="100%" style="stop-color:#FF6B35;stop-opacity:1" />
    </linearGradient>
    <linearGradient id="fireGradientSmall" x1="0%" y1="0%" x2="100%" y2="100%">
      <stop offset="0%" style="stop-color:#FFD700;stop-opacity:1" />
      <stop offset="100%" style="stop-color:#FF6B35;stop-opacity:1" />
    </linearGradient>
    <radialGradient id="noseTipSmall" cx="50%" cy="20%" r="60%">
      <stop offset="0%" style="stop-color:#FFFFFF;stop-opacity:1" />
      <stop offset="100%" style="stop-color:#E0E0E0;stop-opacity:1" />
    </radialGradient>
    <filter id="glowSmall">
      <feGaussianBlur stdDeviation="1" result="coloredBlur"/>
      <feMerge> 
        <feMergeNode in="coloredBlur"/>
        <feMergeNode in="SourceGraphic"/>
      </feMerge>
    </filter>
  </defs>
  
  <!-- Rocket Body (sin la punta) -->
  <path d="M12 9 L12 20 L14 22 L18 22 L20 20 L20 9 L12 9 Z" 
        fill="url(#rocketGradientSmall)" stroke="#1e3c72" stroke-width="0.5"/>
  
  <!-- Rocket Nose Cone (punta blanca) -->
  <path d="M12 9 Q12 5 16 4 Q20 5 20 9 L12 9 Z" 
        fill="url(#noseTipSmall)" stroke="#C0C0C0" stroke-width="0.3"/>
  
  <!-- Antena pequeña -->
  <line x1="16" y1="4" x2="16" y2="6" stroke="#C0C0C0" stroke-width="0.5"/>
  <circle cx="16" cy="4" r="0.3" fill="#FFD700"/>
  
  <!-- Rocket Window -->
  <circle cx="16" cy="12" r="2.5" fill="#87CEEB" stroke="#1e3c72" stroke-width="0.3"/>
  <circle cx="16" cy="12" r="1.8" fill="rgba(255,255,255,0.4)"/>
  
  <!-- Panel de control -->
  <rect x="15" y="15" width="2" height="3" fill="#FFD700" rx="0.3" opacity="0.9"/>
  
  <!-- Luces de navegación -->
  <circle cx="13.5" cy="13" r="0.5" fill="#00FF00" opacity="0.8"/>
  <circle cx="18.5" cy="13" r="0.5" fill="#FF0000" opacity="0.8"/>
  
  <!-- Rocket Fire -->
  <path d="M13 22 L14 27 L16 25 L18 27 L19 22 Z" fill="url(#fireGradientSmall)" filter="url(#glowSmall)"/>
  <path d="M14 22 L15 25 L16 24 L17 25 L18 22 Z" fill="#FFFFFF" opacity="0.6"/>
  
  <!-- Fins -->
  <path d="M12 16 L9 20 L12 19 Z" fill="url(#rocketGradientSmall)"/>
  <path d="M20 16 L23 20 L20 19 Z" fill="url(#rocketGradientSmall)"/>
  
  <!-- Stars -->
  <circle cx="6" cy="8" r="0.5" fill="#FFD700" filter="url(#glowSmall)"/>
  <circle cx="26" cy="10" r="0.5" fill="#FFD700" filter="url(#glowSmall)"/>
</svg>
