<svg xmlns="http://www.w3.org/2000/svg" viewBox="0 0 100 100" width="100" height="100">
  <defs>
    <linearGradient id="rocketGradient" x1="0%" y1="0%" x2="100%" y2="100%">
      <stop offset="0%" style="stop-color:#4A90E2;stop-opacity:1" />
      <stop offset="30%" style="stop-color:#5B9BD5;stop-opacity:1" />
      <stop offset="70%" style="stop-color:#7B68EE;stop-opacity:1" />
      <stop offset="100%" style="stop-color:#FF6B35;stop-opacity:1" />
    </linearGradient>
    <linearGradient id="fireGradient" x1="0%" y1="0%" x2="100%" y2="100%">
      <stop offset="0%" style="stop-color:#FFD700;stop-opacity:1" />
      <stop offset="30%" style="stop-color:#FFA500;stop-opacity:1" />
      <stop offset="70%" style="stop-color:#FF6B35;stop-opacity:1" />
      <stop offset="100%" style="stop-color:#FF4500;stop-opacity:1" />
    </linearGradient>
    <radialGradient id="windowGradient" cx="40%" cy="30%" r="70%">
      <stop offset="0%" style="stop-color:#E6F3FF;stop-opacity:1" />
      <stop offset="40%" style="stop-color:#87CEEB;stop-opacity:1" />
      <stop offset="100%" style="stop-color:#4A90E2;stop-opacity:1" />
    </radialGradient>
    <linearGradient id="noseGradient" x1="0%" y1="0%" x2="100%" y2="100%">
      <stop offset="0%" style="stop-color:#FFFFFF;stop-opacity:1" />
      <stop offset="50%" style="stop-color:#F5F5F5;stop-opacity:1" />
      <stop offset="100%" style="stop-color:#E0E0E0;stop-opacity:1" />
    </linearGradient>
    <radialGradient id="noseTip" cx="50%" cy="20%" r="60%">
      <stop offset="0%" style="stop-color:#FFFFFF;stop-opacity:1" />
      <stop offset="60%" style="stop-color:#F8F8F8;stop-opacity:1" />
      <stop offset="100%" style="stop-color:#D8D8D8;stop-opacity:1" />
    </radialGradient>
    <linearGradient id="metallic" x1="0%" y1="0%" x2="100%" y2="100%">
      <stop offset="0%" style="stop-color:#FFD700;stop-opacity:1" />
      <stop offset="50%" style="stop-color:#FFA500;stop-opacity:1" />
      <stop offset="100%" style="stop-color:#FF8C00;stop-opacity:1" />
    </linearGradient>
    <filter id="glow">
      <feGaussianBlur stdDeviation="2" result="coloredBlur"/>
      <feMerge> 
        <feMergeNode in="coloredBlur"/>
        <feMergeNode in="SourceGraphic"/>
      </feMerge>
    </filter>
    <filter id="shadow">
      <feDropShadow dx="1" dy="2" stdDeviation="1" flood-color="#000000" flood-opacity="0.3"/>
    </filter>
  </defs>
  
  <!-- Rocket Body (sin la punta) con sombra -->
  <path d="M35 25 L35 60 L45 70 L55 70 L65 60 L65 25 L35 25 Z" 
        fill="url(#rocketGradient)" stroke="#1e3c72" stroke-width="1" filter="url(#shadow)"/>
  
  <!-- Paneles laterales del cohete -->
  <rect x="37" y="28" width="4" height="25" fill="url(#metallic)" rx="1" opacity="0.8"/>
  <rect x="59" y="28" width="4" height="25" fill="url(#metallic)" rx="1" opacity="0.8"/>
  
  <!-- Líneas de estructura -->
  <line x1="35" y1="32" x2="65" y2="32" stroke="rgba(255,255,255,0.3)" stroke-width="0.8"/>
  <line x1="35" y1="45" x2="65" y2="45" stroke="rgba(255,255,255,0.3)" stroke-width="0.8"/>
  <line x1="35" y1="58" x2="65" y2="58" stroke="rgba(255,255,255,0.3)" stroke-width="0.8"/>
  
  <!-- Rocket Nose Cone (punta blanca mejorada) -->
  <path d="M35 25 Q35 12 50 8 Q65 12 65 25 L35 25 Z" 
        fill="url(#noseTip)" stroke="#C0C0C0" stroke-width="1" filter="url(#shadow)"/>
  
  <!-- Línea de separación entre la punta y el cuerpo -->
  <line x1="35" y1="25" x2="65" y2="25" stroke="#D0D0D0" stroke-width="1"/>
  
  <!-- Detalles en la punta -->
  <path d="M42 20 Q50 15 58 20" stroke="rgba(255,255,255,0.8)" stroke-width="1" fill="none"/>
  <circle cx="50" cy="18" r="1.2" fill="rgba(200,200,200,0.8)"/>
  <circle cx="50" cy="18" r="0.6" fill="rgba(255,255,255,0.9)"/>
  
  <!-- Antena en la punta -->
  <line x1="50" y1="8" x2="50" y2="12" stroke="#C0C0C0" stroke-width="1"/>
  <circle cx="50" cy="8" r="0.8" fill="#FFD700"/>
  
  <!-- Rocket Window (mejorada) -->
  <circle cx="50" cy="35" r="8" fill="url(#windowGradient)" stroke="#1e3c72" stroke-width="1" filter="url(#glow)"/>
  <circle cx="50" cy="35" r="6.5" fill="#87CEEB" opacity="0.6"/>
  <circle cx="50" cy="35" r="5" fill="rgba(255,255,255,0.4)"/>
  <circle cx="50" cy="35" r="3" fill="rgba(255,255,255,0.2)"/>
  <!-- Reflejo en la ventana -->
  <path d="M45 30 Q48 32 46 38" stroke="rgba(255,255,255,0.7)" stroke-width="1.5" fill="none"/>
  
  <!-- Panel de control central -->
  <rect x="47" y="45" width="6" height="12" fill="url(#metallic)" rx="1" opacity="0.9" filter="url(#shadow)"/>
  <rect x="48" y="47" width="4" height="2" fill="rgba(255,255,255,0.4)" rx="0.5"/>
  <rect x="48" y="50" width="4" height="2" fill="rgba(255,255,255,0.4)" rx="0.5"/>
  <rect x="48" y="53" width="4" height="2" fill="rgba(255,255,255,0.4)" rx="0.5"/>
  
  <!-- Luces de navegación -->
  <circle cx="42" cy="40" r="1.5" fill="#00FF00" opacity="0.8">
    <animate attributeName="opacity" values="0.8;0.3;0.8" dur="1.5s" repeatCount="indefinite"/>
  </circle>
  <circle cx="58" cy="40" r="1.5" fill="#FF0000" opacity="0.8">
    <animate attributeName="opacity" values="0.3;0.8;0.3" dur="1.5s" repeatCount="indefinite"/>
  </circle>
  
  <!-- Tubos de combustible -->
  <rect x="40" y="50" width="2" height="8" fill="#C0C0C0" rx="1"/>
  <rect x="58" y="50" width="2" height="8" fill="#C0C0C0" rx="1"/>
  
  <!-- Rocket Fins (mejoradas con más detalle) -->
  <path d="M35 50 L25 65 L35 60 Z" fill="url(#rocketGradient)" stroke="#1e3c72" stroke-width="1" filter="url(#shadow)"/>
  <path d="M65 50 L75 65 L65 60 Z" fill="url(#rocketGradient)" stroke="#1e3c72" stroke-width="1" filter="url(#shadow)"/>
  
  <!-- Detalles en las aletas -->
  <path d="M32 55 L28 62" stroke="rgba(255,255,255,0.5)" stroke-width="1"/>
  <path d="M68 55 L72 62" stroke="rgba(255,255,255,0.5)" stroke-width="1"/>
  <rect x="29" y="58" width="4" height="2" fill="url(#metallic)" rx="0.5" opacity="0.7"/>
  <rect x="67" y="58" width="4" height="2" fill="url(#metallic)" rx="0.5" opacity="0.7"/>
  
  <!-- Rocket Fire/Exhaust (mejorado con más realismo) -->
  <path d="M40 70 L45 85 L50 80 L55 85 L60 70 L55 75 L50 85 L45 75 Z" 
        fill="url(#fireGradient)" opacity="0.9" filter="url(#glow)">
    <animateTransform attributeName="transform" 
                      type="scale" 
                      values="1 1;1.1 1.2;1 1" 
                      dur="0.5s" 
                      repeatCount="indefinite"/>
  </path>
  
  <!-- Múltiples capas de llama -->
  <path d="M42 70 L46 82 L50 78 L54 82 L58 70 L54 73 L50 83 L46 73 Z" 
        fill="#FF8C00" opacity="0.8">
    <animateTransform attributeName="transform" 
                      type="scale" 
                      values="1 1;0.9 1.3;1 1" 
                      dur="0.4s" 
                      repeatCount="indefinite"/>
  </path>
  
  <!-- Núcleo interno de la llama -->
  <path d="M45 70 L48 80 L50 75 L52 80 L55 70 L52 72 L50 78 L48 72 Z" 
        fill="#FFFFFF" opacity="0.6">
    <animateTransform attributeName="transform" 
                      type="scale" 
                      values="1 1;0.8 1.4;1 1" 
                      dur="0.3s" 
                      repeatCount="indefinite"/>
  </path>
  
  <!-- Sparkles/Stars (animadas y mejoradas) -->
  <circle cx="20" cy="25" r="1.5" fill="#FFD700" filter="url(#glow)">
    <animate attributeName="opacity" values="1;0.3;1" dur="2s" repeatCount="indefinite"/>
  </circle>
  <circle cx="80" cy="35" r="1" fill="#FFD700" filter="url(#glow)">
    <animate attributeName="opacity" values="0.8;0.2;0.8" dur="1.5s" repeatCount="indefinite"/>
  </circle>
  <circle cx="25" cy="45" r="1" fill="#FFA500" filter="url(#glow)">
    <animate attributeName="opacity" values="0.9;0.4;0.9" dur="1.8s" repeatCount="indefinite"/>
  </circle>
  <circle cx="75" cy="25" r="1.5" fill="#FFD700" filter="url(#glow)">
    <animate attributeName="opacity" values="1;0.5;1" dur="2.2s" repeatCount="indefinite"/>
  </circle>
  
  <!-- Arrow (indicating forward movement) mejorado -->
  <path d="M70 45 L85 50 L70 55 L75 50 Z" fill="#FFD700" stroke="#FFA500" stroke-width="0.5" filter="url(#glow)"/>
  
  <!-- Reflejos en el cuerpo -->
  <path d="M38 30 L40 45" stroke="rgba(255,255,255,0.6)" stroke-width="2" stroke-linecap="round"/>
  <path d="M60 32 L62 42" stroke="rgba(255,255,255,0.4)" stroke-width="1.5" stroke-linecap="round"/>
  
  <!-- Humo/vapor adicional -->
  <circle cx="45" cy="68" r="2" fill="rgba(255,255,255,0.3)" opacity="0.5">
    <animate attributeName="r" values="2;4;2" dur="1s" repeatCount="indefinite"/>
    <animate attributeName="opacity" values="0.5;0.1;0.5" dur="1s" repeatCount="indefinite"/>
  </circle>
  <circle cx="55" cy="68" r="2" fill="rgba(255,255,255,0.3)" opacity="0.5">
    <animate attributeName="r" values="2;4;2" dur="1.2s" repeatCount="indefinite"/>
    <animate attributeName="opacity" values="0.5;0.1;0.5" dur="1.2s" repeatCount="indefinite"/>
  </circle>
</svg>
