<?xml version="1.0" encoding="UTF-8" standalone="no"?>
<svg xmlns="http://www.w3.org/2000/svg" width="800" height="800" viewBox="0 0 800 800">
  <rect width="800" height="800" fill="#000000"/>
  
  <!-- BitForward Text -->
  <text x="96" y="388" font-family="Arial, sans-serif" font-size="110" font-weight="bold" fill="#FFFFFF">BitForward</text>
  
  <!-- v2.0 Text -->
  <text x="96" y="482" font-family="Arial, sans-serif" font-size="80" font-weight="bold" fill="#FFFFFF">v2.0</text>
  
  <!-- By AFORTU Holdings Text -->
  <text x="96" y="542" font-family="Arial, sans-serif" font-size="40" fill="#FFFFFF">By AFORTU Holdings</text>

  <!-- Rocket -->
  <defs>
    <linearGradient id="rocket-gradient" x1="0%" y1="0%" x2="100%" y2="100%">
      <stop offset="0%" style="stop-color:#4A90E2"/>
      <stop offset="50%" style="stop-color:#7E57C2"/>
      <stop offset="100%" style="stop-color:#FF5722"/>
    </linearGradient>
    <radialGradient id="window-gradient" cx="50%" cy="50%" r="50%">
      <stop offset="0%" style="stop-color:#81D4FA"/>
      <stop offset="100%" style="stop-color:#2196F3"/>
    </radialGradient>
  </defs>
  
  <!-- Rocket Body -->
  <path d="M650 280 L630 320 L680 320 Z" fill="url(#rocket-gradient)"/>
  <path d="M630 320 L630 345 L680 345 L680 320 Z" fill="#E0E0E0"/>
  
  <!-- Rocket Window -->
  <circle cx="655" cy="280" r="12" fill="url(#window-gradient)"/>
  
  <!-- Flame -->
  <path d="M630 345 L625 365 L645 345 Z" fill="#FF5722"/>
  <path d="M680 345 L685 365 L665 345 Z" fill="#FF5722"/>
  
  <!-- Arrow -->
  <path d="M500 480 Q550 500 500 550 L520 545 L500 570 L480 545 L500 550" fill="#FFD700"/>
  
  <!-- Star -->
  <path d="M730 730 L735 715 L740 730 L755 735 L740 740 L735 755 L730 740 L715 735 Z" fill="#FFFFFF" opacity="0.7"/>
</svg>
